<svg width="25" height="25" viewBox="0 0 25 25" fill="none" xmlns="http://www.w3.org/2000/svg">
<path fill-rule="evenodd" clip-rule="evenodd" d="M0 2.67857C0 1.96817 0.282219 1.28686 0.784572 0.784535C1.28693 0.282206 1.96826 0 2.6787 0L15.1793 0C15.8897 0 16.5711 0.282206 17.0734 0.784535C17.5758 1.28686 17.858 1.96817 17.858 2.67857V6.14107C17.1334 6.72142 16.6633 7.56109 16.5472 8.48214H10.2683C9.74068 8.48214 9.21819 8.58607 8.7307 8.78798C8.24321 8.9899 7.80026 9.28585 7.42715 9.65895C7.05404 10.032 6.75808 10.475 6.55615 10.9624C6.35422 11.4499 6.25029 11.9724 6.25029 12.5C6.25029 13.0276 6.35422 13.5501 6.55615 14.0376C6.75808 14.525 7.05404 14.968 7.42715 15.3411C7.80026 15.7141 8.24321 16.0101 8.7307 16.212C9.21819 16.4139 9.74068 16.5179 10.2683 16.5179H16.5472C16.6633 17.4389 17.1334 18.2786 17.858 18.8589V22.3214C17.858 23.0318 17.5758 23.7131 17.0734 24.2155C16.5711 24.7178 15.8897 25 15.1793 25H2.6787C1.96826 25 1.28693 24.7178 0.784572 24.2155C0.282219 23.7131 0 23.0318 0 22.3214L0 2.67857ZM19.5777 7.69107C19.3329 7.79245 19.1237 7.96413 18.9766 8.1844C18.8294 8.40468 18.7509 8.66366 18.7509 8.92857V10.7143H10.2683C9.79472 10.7143 9.34049 10.9024 9.00559 11.2373C8.67069 11.5722 8.48254 12.0264 8.48254 12.5C8.48254 12.9736 8.67069 13.4278 9.00559 13.7627C9.34049 14.0976 9.79472 14.2857 10.2683 14.2857H18.7509V16.0714C18.7511 16.3361 18.8298 16.5949 18.977 16.8149C19.1242 17.0349 19.3333 17.2064 19.5778 17.3077C19.8224 17.4089 20.0915 17.4354 20.3512 17.3839C20.6109 17.3323 20.8494 17.2049 21.0367 17.0179L24.6083 13.4464C24.8591 13.1953 25 12.8549 25 12.5C25 12.1451 24.8591 11.8047 24.6083 11.5536L21.0367 7.98214C20.8495 7.79484 20.611 7.66722 20.3513 7.61541C20.0917 7.5636 19.8224 7.58993 19.5777 7.69107Z" fill="white"/>
</svg>
